<?xml version="1.0" encoding="UTF-8" standalone="no"?>
<svg
   width="229.61594"
   zoomAndPan="magnify"
   viewBox="0 0 172.21195 28.723743"
   height="38.298325"
   preserveAspectRatio="xMidYMid meet"
   version="1.0"
   id="svg898"
   xmlns="http://www.w3.org/2000/svg"
   xmlns:svg="http://www.w3.org/2000/svg">
  <defs
     id="defs826">
    <g
       id="g824" />
  </defs>
  <g
     id="g978"
     transform="matrix(1.0203609,0,0,1.4578268,2.0407218e-6,7.289134e-6)">
    <g
       fill="#ffffff"
       fill-opacity="1"
       id="g834"
       transform="translate(-103.11102,-242.67386)">
      <g
         transform="translate(102.49383,262.37698)"
         id="g832">
        <g
           id="g830">
          <path
             d="m 1.257812,0 h 6.132813 c 0.34375,0 0.613281,-0.269531 0.613281,-0.617188 V -6.28125 c 0,-0.34375 0.296875,-0.613281 0.640625,-0.613281 h 6.652344 c 2.90625,0 5.023437,-2.121094 5.023437,-5.027344 v -2.757813 c 0,-2.90625 -2.117187,-5.023437 -5.023437,-5.023437 H 1.230469 c -0.34375,0 -0.613281,0.269531 -0.613281,0.613281 V -0.617188 C 0.617188,-0.269531 0.910156,0 1.257812,0 Z m 7.363282,-12.808594 c -0.34375,0 -0.617188,-0.269531 -0.617188,-0.613281 0,-0.347656 0.273438,-0.617187 0.617188,-0.617187 h 3.695312 c 0.34375,0 0.613282,0.269531 0.613282,0.617187 0,0.34375 -0.269532,0.613281 -0.613282,0.613281 z m 0,0"
             id="path828" />
        </g>
      </g>
    </g>
    <g
       fill="#ffffff"
       fill-opacity="1"
       id="g842"
       transform="translate(-103.11102,-242.67386)">
      <g
         transform="translate(123.42175,262.37698)"
         id="g840">
        <g
           id="g838">
          <path
             d="m 1.257812,0 h 18.472657 c 0.34375,0 0.613281,-0.269531 0.613281,-0.617188 v -4.679687 c 0,-0.34375 -0.296875,-0.613281 -0.640625,-0.613281 H 8.621094 c -0.34375,0 -0.617188,-0.273438 -0.617188,-0.617188 0,-0.34375 0.273438,-0.617187 0.617188,-0.617187 h 10.121094 c 0.347656,0 0.617187,-0.269531 0.617187,-0.613281 v -4.1875 c 0,-0.34375 -0.296875,-0.617188 -0.640625,-0.617188 H 8.621094 c -0.34375,0 -0.617188,-0.269531 -0.617188,-0.613281 0,-0.347657 0.273438,-0.617188 0.617188,-0.617188 h 11.109375 c 0.34375,0 0.613281,-0.269531 0.613281,-0.617187 v -4.679688 c 0,-0.34375 -0.269531,-0.613281 -0.613281,-0.613281 h -18.5 c -0.34375,0 -0.613281,0.269531 -0.613281,0.613281 V -0.617188 C 0.617188,-0.269531 0.910156,0 1.257812,0 Z m 0,0"
             id="path836" />
        </g>
      </g>
    </g>
    <g
       fill="#ffffff"
       fill-opacity="1"
       id="g850"
       transform="translate(-103.11102,-242.67386)">
      <g
         transform="translate(144.37427,262.37698)"
         id="g848">
        <g
           id="g846">
          <path
             d="m 1.257812,0 h 6.132813 c 0.34375,0 0.613281,-0.269531 0.613281,-0.617188 V -6.28125 c 0,-0.34375 0.296875,-0.613281 0.640625,-0.613281 h 6.652344 c 2.90625,0 5.023437,-2.121094 5.023437,-5.027344 v -2.757813 c 0,-2.90625 -2.117187,-5.023437 -5.023437,-5.023437 H 1.230469 c -0.34375,0 -0.613281,0.269531 -0.613281,0.613281 V -0.617188 C 0.617188,-0.269531 0.910156,0 1.257812,0 Z m 7.363282,-12.808594 c -0.34375,0 -0.617188,-0.269531 -0.617188,-0.613281 0,-0.347656 0.273438,-0.617187 0.617188,-0.617187 h 3.695312 c 0.34375,0 0.613282,0.269531 0.613282,0.617187 0,0.34375 -0.269532,0.613281 -0.613282,0.613281 z m 0,0"
             id="path844" />
        </g>
      </g>
    </g>
    <g
       fill="#ffffff"
       fill-opacity="1"
       id="g858"
       transform="translate(-103.11102,-242.67386)">
      <g
         transform="translate(165.30219,262.37698)"
         id="g856">
        <g
           id="g854">
          <path
             d="m 1.257812,0 h 18.472657 c 0.34375,0 0.613281,-0.269531 0.613281,-0.617188 v -4.679687 c 0,-0.34375 -0.296875,-0.613281 -0.640625,-0.613281 H 8.621094 c -0.34375,0 -0.617188,-0.273438 -0.617188,-0.617188 0,-0.34375 0.273438,-0.617187 0.617188,-0.617187 h 10.121094 c 0.347656,0 0.617187,-0.269531 0.617187,-0.613281 v -4.1875 c 0,-0.34375 -0.296875,-0.617188 -0.640625,-0.617188 H 8.621094 c -0.34375,0 -0.617188,-0.269531 -0.617188,-0.613281 0,-0.347657 0.273438,-0.617188 0.617188,-0.617188 h 11.109375 c 0.34375,0 0.613281,-0.269531 0.613281,-0.617187 v -4.679688 c 0,-0.34375 -0.269531,-0.613281 -0.613281,-0.613281 h -18.5 c -0.34375,0 -0.613281,0.269531 -0.613281,0.613281 V -0.617188 C 0.617188,-0.269531 0.910156,0 1.257812,0 Z m 0,0"
             id="path852" />
        </g>
      </g>
    </g>
    <g
       fill="#36d5ff"
       fill-opacity="1"
       id="g864"
       transform="translate(-103.11102,-242.67386)">
      <g
         transform="translate(186.24773,262.37698)"
         id="g862">
        <g
           id="g860" />
      </g>
    </g>
    <g
       fill="#36d5ff"
       fill-opacity="1"
       id="g872"
       transform="translate(-103.11102,-242.67386)">
      <g
         transform="translate(192.40299,262.37698)"
         id="g870">
        <g
           id="g868">
          <path
             d="m 1.230469,0 h 15.125 c 2.3125,0 4.011719,-1.699219 4.011719,-4.015625 v -2.707031 c 0,-1.453125 -1.058594,-2.511719 -2.511719,-2.511719 h -0.21875 c -0.347657,0 -0.617188,-0.273437 -0.617188,-0.617187 0,-0.34375 0.269531,-0.617188 0.617188,-0.617188 h 0.21875 c 1.453125,0 2.511719,-1.058594 2.511719,-2.511719 V -15.6875 c 0,-2.316406 -1.699219,-4.015625 -4.011719,-4.015625 h -15.125 c -0.34375,0 -0.613281,0.269531 -0.613281,0.613281 V -0.617188 C 0.617188,-0.269531 0.886719,0 1.230469,0 Z m 7.390625,-12.683594 c -0.34375,0 -0.617188,-0.273437 -0.617188,-0.617187 0,-0.34375 0.273438,-0.613281 0.617188,-0.613281 h 3.695312 c 0.34375,0 0.613282,0.269531 0.613282,0.613281 0,0.34375 -0.269532,0.617187 -0.613282,0.617187 z m 0,6.894532 c -0.34375,0 -0.617188,-0.269532 -0.617188,-0.613282 0,-0.347656 0.273438,-0.617187 0.617188,-0.617187 h 3.695312 c 0.34375,0 0.613282,0.269531 0.613282,0.617187 0,0.34375 -0.269532,0.613282 -0.613282,0.613282 z m 0,0"
             id="path866" />
        </g>
      </g>
    </g>
    <g
       fill="#36d5ff"
       fill-opacity="1"
       id="g880"
       transform="translate(-103.11102,-242.67386)">
      <g
         transform="translate(213.38014,262.37698)"
         id="g878">
        <g
           id="g876">
          <path
             d="m 1.257812,0 h 6.132813 c 0.34375,0 0.613281,-0.269531 0.613281,-0.617188 V -4.0625 c 0,-0.347656 0.273438,-0.617188 0.617188,-0.617188 0.34375,0 0.613281,0.296876 0.613281,0.640626 v 3.421874 C 9.234375,-0.269531 9.53125,0 9.875,0 h 6.132812 C 16.355469,0 16.625,-0.269531 16.625,-0.617188 v -14.0625 c 0,-2.90625 -2.117188,-5.023437 -5.023438,-5.023437 H 5.640625 c -2.90625,0 -5.023437,2.117187 -5.023437,5.023437 v 14.0625 C 0.617188,-0.269531 0.910156,0 1.257812,0 Z m 7.363282,-10.589844 c -0.34375,0 -0.617188,-0.273437 -0.617188,-0.617187 v -1.96875 c 0,-0.347657 0.273438,-0.617188 0.617188,-0.617188 0.34375,0 0.613281,0.269531 0.613281,0.617188 v 1.96875 c 0,0.34375 -0.269531,0.617187 -0.613281,0.617187 z m 0,0"
             id="path874" />
        </g>
      </g>
    </g>
    <g
       fill="#36d5ff"
       fill-opacity="1"
       id="g888"
       transform="translate(-103.11102,-242.67386)">
      <g
         transform="translate(230.61488,262.37698)"
         id="g886">
        <g
           id="g884">
          <path
             d="m 1.230469,0 h 14.066406 c 2.90625,0 5.023437,-2.117188 5.023437,-5.023438 V -7.78125 c 0,-2.90625 -2.117187,-5.027344 -5.023437,-5.027344 H 8.621094 c -0.34375,0 -0.617188,-0.269531 -0.617188,-0.613281 0,-0.347656 0.273438,-0.617187 0.617188,-0.617187 h 11.082031 c 0.34375,0 0.617187,-0.269532 0.617187,-0.617188 v -4.433594 c 0,-0.34375 -0.273437,-0.613281 -0.617187,-0.613281 h -14.0625 c -2.90625,0 -5.023437,2.117187 -5.023437,5.023437 v 2.757813 c 0,2.90625 2.117187,5.027344 5.023437,5.027344 h 6.675781 c 0.34375,0 0.613282,0.269531 0.613282,0.613281 0,0.34375 -0.269532,0.617188 -0.613282,0.617188 H 1.230469 c -0.34375,0 -0.613281,0.269531 -0.613281,0.613281 v 4.433593 C 0.617188,-0.269531 0.886719,0 1.230469,0 Z m 0,0"
             id="path882" />
        </g>
      </g>
    </g>
    <g
       fill="#36d5ff"
       fill-opacity="1"
       id="g896"
       transform="translate(-103.11102,-242.67386)">
      <g
         transform="translate(251.5428,262.37698)"
         id="g894">
        <g
           id="g892">
          <path
             d="m 1.257812,0 h 18.472657 c 0.34375,0 0.613281,-0.269531 0.613281,-0.617188 v -4.679687 c 0,-0.34375 -0.296875,-0.613281 -0.640625,-0.613281 H 8.621094 c -0.34375,0 -0.617188,-0.273438 -0.617188,-0.617188 0,-0.34375 0.273438,-0.617187 0.617188,-0.617187 h 10.121094 c 0.347656,0 0.617187,-0.269531 0.617187,-0.613281 v -4.1875 c 0,-0.34375 -0.296875,-0.617188 -0.640625,-0.617188 H 8.621094 c -0.34375,0 -0.617188,-0.269531 -0.617188,-0.613281 0,-0.347657 0.273438,-0.617188 0.617188,-0.617188 h 11.109375 c 0.34375,0 0.613281,-0.269531 0.613281,-0.617187 v -4.679688 c 0,-0.34375 -0.269531,-0.613281 -0.613281,-0.613281 h -18.5 c -0.34375,0 -0.613281,0.269531 -0.613281,0.613281 V -0.617188 C 0.617188,-0.269531 0.910156,0 1.257812,0 Z m 0,0"
             id="path890" />
        </g>
      </g>
    </g>
  </g>
</svg>
